<?xml version="1.0" standalone="no"?>
<!DOCTYPE svg PUBLIC "-//W3C//DTD SVG 20010904//EN"
 "http://www.w3.org/TR/2001/REC-SVG-20010904/DTD/svg10.dtd">
<svg version="1.0" xmlns="http://www.w3.org/2000/svg"
 width="1080.000000pt" height="1080.000000pt" viewBox="0 0 1080.000000 1080.000000"
 preserveAspectRatio="xMidYMid meet">

<g transform="translate(0.000000,1080.000000) scale(0.100000,-0.100000)"
fill="#000000" stroke="none">
<path d="M5000 8810 c-304 -43 -524 -112 -805 -250 -132 -64 -396 -223 -415
-249 -3 -4 -34 -29 -70 -56 -74 -57 -324 -303 -391 -385 -220 -270 -380 -569
-489 -915 -73 -233 -110 -488 -110 -765 0 -238 19 -398 71 -615 64 -266 165
-518 289 -720 22 -36 40 -68 40 -70 0 -5 50 -76 122 -175 98 -134 293 -342
418 -446 376 -311 825 -515 1295 -588 459 -71 925 -21 1360 147 833 322 1451
1046 1635 1917 43 208 55 325 55 555 0 240 -18 385 -74 625 -85 362 -290 774
-521 1044 -159 186 -259 284 -431 418 -360 281 -808 469 -1259 528 -193 26
-540 26 -720 0z m676 -145 c192 -25 266 -42 444 -97 546 -169 1037 -549 1354
-1046 91 -142 210 -394 253 -532 119 -381 155 -697 118 -1035 -36 -335 -107
-588 -247 -873 -52 -105 -178 -317 -217 -364 -6 -7 -45 -56 -88 -108 -100
-123 -252 -273 -378 -372 -55 -43 -106 -83 -113 -89 -8 -6 -63 -42 -123 -79
-550 -341 -1208 -455 -1842 -319 -931 201 -1667 913 -1896 1834 -50 203 -71
382 -71 607 0 577 186 1110 544 1558 82 103 295 315 391 392 243 191 543 349
820 432 190 56 170 52 475 99 71 11 475 6 576 -8z"/>
<path d="M5140 8429 c-243 -31 -243 -31 -461 -93 -153 -44 -379 -153 -552
-266 -59 -38 -110 -70 -112 -70 -2 0 -15 -10 -28 -22 -13 -13 -50 -45 -83 -73
-120 -101 -277 -271 -372 -400 -64 -88 -168 -262 -195 -326 -8 -19 -24 -54
-35 -79 -65 -137 -122 -324 -159 -520 -24 -121 -26 -160 -27 -375 -1 -209 2
-257 22 -375 58 -333 159 -582 375 -924 7 -11 19 -26 27 -35 8 -9 37 -45 65
-81 48 -63 213 -233 287 -296 141 -121 335 -248 501 -327 53 -26 100 -47 102
-47 3 0 24 -9 48 -19 96 -44 312 -101 482 -128 131 -20 509 -23 620 -5 39 7
88 14 110 16 72 8 349 85 380 106 6 4 33 15 60 25 57 20 277 126 285 136 3 4
23 16 45 28 22 12 67 42 100 67 33 24 68 47 78 50 9 4 17 10 17 15 0 4 20 22
45 40 25 18 43 39 41 45 -3 9 1 11 12 7 15 -6 15 -5 3 10 -17 21 -7 35 13 18
8 -7 17 -8 20 -3 3 5 -6 14 -20 21 -32 14 -34 14 -34 -3 0 -15 -67 -32 -79
-20 -3 4 0 9 7 11 29 11 8 23 -33 19 -25 -2 -48 0 -51 5 -3 5 -41 9 -85 9 -78
0 -79 0 -79 25 0 23 -4 25 -40 25 -22 0 -40 5 -40 10 0 6 -26 10 -59 10 -102
0 -181 12 -181 26 0 10 -14 14 -45 15 -25 1 -58 3 -75 4 -16 1 -60 4 -97 5
-38 2 -58 5 -45 7 12 2 22 11 22 19 0 8 10 14 24 14 14 0 28 5 31 11 4 6 13 8
20 5 12 -4 75 13 120 34 11 5 43 14 70 20 58 13 99 35 50 26 -16 -2 -48 -9
-70 -14 -22 -6 -74 -17 -115 -26 -41 -9 -97 -23 -125 -30 -27 -8 -88 -24 -135
-36 -47 -12 -116 -30 -155 -41 -119 -34 -128 -37 -198 -49 -71 -13 -89 -10
-187 25 -19 7 -66 20 -105 29 -38 9 -86 22 -106 28 -20 6 -42 7 -48 4 -6 -4
-25 0 -43 8 -18 8 -64 17 -102 20 -99 10 -134 27 -153 76 -9 22 -20 40 -25 40
-11 0 -10 -37 1 -78 9 -29 0 -45 -13 -23 -3 4 -17 6 -31 4 -13 -3 -22 -9 -19
-14 3 -5 -6 -9 -20 -9 -14 0 -26 -4 -26 -10 0 -5 -11 -10 -25 -10 -31 0 -33
17 -3 22 16 2 24 12 29 36 6 28 4 32 -10 26 -9 -4 -38 -11 -64 -17 -37 -8 -51
-16 -58 -34 -14 -38 -35 -53 -73 -53 -20 0 -36 -4 -36 -10 0 -6 -33 -10 -80
-10 -64 0 -80 3 -80 15 0 8 -7 16 -15 16 -8 1 -19 3 -25 4 -5 1 -23 3 -39 4
-26 1 -30 5 -36 41 -4 22 -12 40 -19 40 -9 0 -15 21 -19 57 -3 32 -11 59 -17
61 -5 2 -10 12 -10 22 0 12 -8 20 -22 22 -18 2 -24 11 -28 43 -4 31 -17 52
-54 90 -27 28 -46 42 -43 32 4 -9 -13 2 -36 25 -23 24 -39 45 -34 46 4 2 -15
26 -43 53 -44 43 -56 68 -51 102 0 4 -5 7 -13 7 -10 0 -16 21 -21 76 -6 67 -9
76 -31 84 -22 9 -24 14 -24 85 0 43 -4 75 -10 75 -6 0 -10 47 -10 120 0 100
-2 120 -15 120 -12 0 -15 20 -15 120 0 100 3 120 15 120 11 0 15 12 15 48 1
143 20 416 29 425 8 8 11 -2 12 -34 1 -32 4 -22 11 39 6 45 14 82 19 82 5 0 9
36 9 80 0 44 4 80 9 80 6 0 11 17 13 38 3 33 6 37 34 40 31 3 32 4 39 75 8 89
18 106 26 47 3 -25 4 10 1 78 l-5 122 41 0 c22 0 43 6 46 13 5 10 7 10 12 0 3
-7 17 -13 30 -13 14 0 22 4 19 10 -3 6 3 10 14 10 29 0 34 -16 15 -45 -9 -14
-12 -25 -6 -25 6 0 16 9 22 20 15 28 54 25 74 -5 25 -39 84 -74 401 -242 92
-49 299 -152 811 -404 110 -54 210 -108 223 -120 24 -23 18 -39 -15 -41 -16
-1 -324 121 -469 187 -27 13 -97 43 -155 68 -187 80 -591 267 -725 335 -71 36
-148 68 -170 71 -29 4 -43 13 -52 31 -12 24 -13 24 -13 3 0 -11 14 -33 30 -46
17 -14 30 -30 30 -36 0 -6 8 -11 18 -11 9 0 29 -11 44 -25 15 -14 38 -25 52
-25 14 0 29 -6 33 -13 7 -12 72 -46 158 -82 17 -7 71 -30 120 -53 50 -22 155
-68 235 -102 80 -34 154 -65 165 -71 56 -26 353 -145 445 -179 100 -36 159
-60 170 -68 9 -7 -26 -22 -51 -22 -45 0 -719 229 -894 304 -68 30 -91 39 -115
46 -14 5 -83 29 -154 54 -71 25 -141 46 -154 46 -24 0 -24 -1 -8 -19 27 -29
87 -55 124 -52 25 1 32 -2 32 -16 0 -15 41 -34 193 -92 242 -92 556 -200 667
-230 165 -43 252 -73 244 -81 -10 -10 -96 5 -304 50 -214 47 -470 123 -754
224 -55 19 -104 32 -109 29 -16 -10 71 -52 163 -78 33 -9 45 -17 45 -31 0 -15
16 -24 75 -41 41 -12 85 -22 96 -22 13 -1 24 -9 27 -20 3 -14 20 -22 63 -31
33 -7 95 -21 139 -32 44 -11 154 -35 244 -54 90 -18 167 -36 170 -40 12 -13
-225 16 -381 46 -127 25 -158 25 -158 4 0 -9 -9 -23 -21 -33 -19 -15 -19 -18
-6 -30 9 -6 52 -16 97 -20 99 -10 115 -21 31 -21 -65 0 -85 -15 -64 -48 18
-29 67 -35 390 -41 177 -3 325 -10 329 -14 16 -15 -13 -42 -67 -62 -42 -16
-49 -21 -30 -23 13 -2 26 -12 28 -23 6 -21 29 -26 35 -8 3 9 13 9 41 0 31 -11
37 -17 37 -42 0 -16 4 -29 9 -29 21 0 5 81 -22 111 -34 39 -34 47 1 54 15 3
40 10 57 15 16 6 31 6 33 2 4 -13 163 -2 199 14 40 18 52 18 88 -4 20 -13 37
-16 50 -11 26 10 85 11 85 2 0 -10 69 -57 75 -51 3 2 0 18 -5 34 -5 16 -21 75
-36 131 l-26 102 -72 48 c-39 26 -86 60 -104 75 -18 16 -42 28 -53 28 -11 0
-38 17 -62 39 -63 58 -272 197 -448 297 -35 20 -80 45 -99 57 -19 11 -69 38
-110 60 -41 23 -89 50 -107 62 -63 40 -339 217 -398 254 -33 21 -72 41 -85 44
-14 3 -59 26 -100 51 -41 25 -76 44 -77 42 -8 -7 10 -36 23 -36 7 0 17 -6 21
-13 21 -35 492 -330 723 -454 234 -125 445 -246 548 -314 98 -65 113 -92 63
-118 -13 -8 -27 -4 -54 15 -44 30 -200 114 -437 236 -209 108 -342 178 -430
226 -36 19 -94 51 -130 70 -35 19 -103 55 -150 80 -47 24 -89 48 -95 52 -24
20 -149 79 -156 74 -5 -3 -20 3 -34 12 -20 13 -23 19 -13 26 9 6 7 8 -8 4 -15
-5 -24 0 -33 18 -8 13 -26 26 -42 30 -33 6 -37 29 -18 86 9 25 9 34 -2 40 -23
15 9 61 40 59 14 -1 35 -1 46 0 20 2 20 2 0 17 -16 11 -17 17 -7 23 8 4 13 14
12 22 -5 36 3 53 49 101 49 51 51 52 78 38 15 -8 35 -20 43 -28 85 -75 100
-84 100 -61 0 6 -9 13 -20 16 -22 6 -26 18 -10 28 6 4 18 1 26 -6 13 -10 17
-10 25 2 7 12 9 12 9 -1 0 -12 9 -15 40 -12 22 2 40 8 40 12 0 5 17 10 37 12
32 3 38 7 45 34 7 29 12 32 60 38 29 3 81 6 116 6 48 0 62 3 62 15 0 12 16 15
80 15 47 0 80 4 80 10 0 6 20 10 45 10 29 0 45 4 45 13 0 8 4 7 10 -3 9 -13
10 -13 10 0 0 13 1 13 10 0 9 -13 10 -13 10 0 0 13 1 13 10 0 9 -13 10 -13 10
0 0 13 1 13 10 0 9 -13 10 -13 10 0 0 13 1 13 10 0 9 -13 10 -13 10 0 0 13 1
13 10 0 9 -13 10 -13 10 0 0 13 1 13 10 0 8 -13 43 -15 215 -15 113 0 205 -3
205 -7 0 -5 30 -8 68 -8 37 0 114 -7 172 -15 58 -8 135 -15 173 -15 53 0 67
-3 67 -15 0 -11 11 -15 40 -15 22 0 40 -4 40 -9 0 -5 72 -12 159 -16 144 -7
160 -9 164 -26 4 -14 14 -19 40 -19 20 0 37 -4 39 -9 2 -5 21 -10 43 -12 22
-1 50 -11 62 -22 13 -11 36 -20 53 -19 35 1 84 -41 77 -67 -3 -14 5 -16 55
-13 50 3 62 1 77 -17 10 -11 21 -18 25 -14 3 3 6 -6 6 -20 0 -26 2 -27 63 -28
34 -1 70 -2 80 -2 13 0 17 -8 17 -38 0 -39 0 -39 40 -39 l40 0 0 -40 c0 -39 1
-40 34 -40 30 0 35 -4 41 -30 4 -16 6 -33 5 -36 -1 -4 4 -10 12 -15 10 -7 10
-11 -4 -21 -14 -11 -16 -26 -10 -113 l7 -100 32 -3 c30 -3 32 -6 36 -45 l4
-42 1 43 c2 41 3 42 36 42 28 0 35 4 39 23 2 12 4 2 4 -23 -1 -25 0 -71 1
-102 2 -54 4 -57 30 -61 l27 -4 -28 -2 -28 -1 3 -72 3 -73 38 -3 37 -3 0 -80
0 -79 46 0 46 0 -6 -42 c-3 -24 -2 -34 1 -23 4 15 9 7 19 -30 16 -62 16 -65 4
-65 -5 0 -10 11 -10 24 0 14 -4 28 -10 31 -6 4 -10 -47 -10 -144 0 -128 2
-151 15 -151 11 0 15 -13 15 -52 0 -29 6 -71 14 -92 13 -37 14 -28 21 148 4
104 5 211 1 240 -4 28 -8 87 -10 131 -3 100 -45 317 -59 308 -6 -3 -7 -2 -4 4
10 16 -14 87 -34 101 -11 7 -19 18 -19 24 0 7 6 6 15 -2 8 -7 15 -10 15 -7 0
8 -55 157 -71 190 -12 26 -14 27 -21 10 -6 -14 -7 -12 -4 7 9 41 -93 232 -216
407 -32 45 -58 84 -58 86 0 14 -230 250 -319 327 -240 209 -643 412 -926 469
-27 5 -68 14 -90 20 -132 33 -490 50 -645 30z m-1224 -1026 c-10 -10 -19 5
-10 18 6 11 8 11 12 0 2 -7 1 -15 -2 -18z m3319 -23 c10 -11 14 -20 9 -20 -5
0 -15 9 -22 20 -7 11 -11 20 -9 20 2 0 12 -9 22 -20z m-3332 -5 c4 -8 1 -17
-5 -21 -7 -4 -8 -3 -4 4 4 7 2 12 -4 12 -6 0 -8 5 -5 10 8 14 12 13 18 -5z
m3397 -110 c0 -5 -5 -3 -10 5 -5 8 -10 20 -10 25 0 6 5 3 10 -5 5 -8 10 -19
10 -25z m-20 -85 c0 -11 -4 -20 -10 -20 -5 0 -10 -11 -10 -25 0 -16 -6 -25
-15 -25 -9 0 -15 9 -15 24 0 13 7 26 15 30 8 3 15 12 15 21 0 8 5 15 10 15 6
0 10 -9 10 -20z m163 -310 c-7 -27 -23 -15 -23 17 0 21 3 23 14 14 8 -7 12
-21 9 -31z m14 -57 c-3 -10 -5 -2 -5 17 0 19 2 27 5 18 2 -10 2 -26 0 -35z
m103 -266 c0 -8 -3 -8 -9 1 -6 10 -10 8 -16 -10 -6 -20 -8 -21 -12 -4 -3 10 1
22 8 27 15 9 29 3 29 -14z m1 -67 c5 0 9 -19 8 -42 l-1 -43 -14 50 c-7 28 -13
55 -13 60 1 6 3 2 6 -7 2 -10 9 -18 14 -18z m-1886 -34 c74 -27 148 -72 140
-86 -11 -18 -99 -60 -114 -54 -12 5 -9 10 14 21 29 13 27 13 -30 8 -56 -5 -59
-5 -35 9 16 10 19 15 10 16 -18 0 -99 40 -85 41 6 0 22 2 38 4 15 2 25 0 22
-6 -7 -10 28 -13 38 -2 6 6 -13 20 -53 40 -8 4 -21 13 -28 20 -21 20 7 17 83
-11z m-762 -203 c-7 -2 -19 -2 -25 0 -7 3 -2 5 12 5 14 0 19 -2 13 -5z m687
-37 c0 -7 -11 -16 -24 -18 -31 -6 -136 13 -136 24 0 4 36 8 80 8 61 0 80 -3
80 -14z m-1684 -1193 c-10 -10 -19 5 -10 18 6 11 8 11 12 0 2 -7 1 -15 -2 -18z
m2844 -543 c0 -5 -4 -10 -9 -10 -6 0 -13 5 -16 10 -3 6 1 10 9 10 9 0 16 -4
16 -10z"/>
<path d="M5695 6380 c3 -5 15 -10 26 -10 11 0 17 5 14 10 -3 6 -15 10 -26 10
-11 0 -17 -4 -14 -10z"/>
<path d="M4310 7611 c0 -11 4 -22 9 -25 4 -3 6 6 3 19 -5 30 -12 33 -12 6z"/>
<path d="M6578 7553 c-34 -9 -18 -18 25 -14 33 3 38 5 22 12 -22 8 -23 9 -47
2z"/>
<path d="M6662 7500 c0 -14 2 -19 5 -12 2 6 2 18 0 25 -3 6 -5 1 -5 -13z"/>
<path d="M3957 7503 c-4 -3 -7 -13 -7 -21 0 -12 3 -12 15 -2 8 7 15 16 15 21
0 11 -14 12 -23 2z"/>
<path d="M6531 7484 c0 -11 3 -14 6 -6 3 7 2 16 -1 19 -3 4 -6 -2 -5 -13z"/>
<path d="M6663 7405 c0 -27 2 -38 4 -22 2 15 2 37 0 50 -2 12 -4 0 -4 -28z"/>
<path d="M6711 7434 c0 -11 3 -14 6 -6 3 7 2 16 -1 19 -3 4 -6 -2 -5 -13z"/>
<path d="M3842 7165 c0 -16 2 -22 5 -12 2 9 2 23 0 30 -3 6 -5 -1 -5 -18z"/>
<path d="M5760 6525 c0 -8 7 -15 15 -15 8 0 15 7 15 15 0 8 -7 15 -15 15 -8 0
-15 -7 -15 -15z"/>
<path d="M4765 6130 c3 -5 8 -10 11 -10 2 0 4 5 4 10 0 6 -5 10 -11 10 -5 0
-7 -4 -4 -10z"/>
<path d="M4800 6130 c0 -5 18 -10 40 -10 22 0 40 5 40 10 0 6 -18 10 -40 10
-22 0 -40 -4 -40 -10z"/>
<path d="M5635 6111 c-8 -27 1 -41 26 -41 16 0 20 6 17 27 -4 34 -33 43 -43
14z"/>
<path d="M5520 6040 c0 -13 20 -13 40 0 12 8 9 10 -12 10 -16 0 -28 -4 -28
-10z"/>
<path d="M4481 5958 c1 -57 2 -60 11 -33 14 40 13 40 53 21 41 -20 47 -46 10
-46 -14 0 -25 -4 -25 -8 0 -17 59 -51 96 -56 30 -4 33 -4 14 3 -14 5 -20 9
-15 10 21 2 33 79 20 124 l-12 42 -77 3 -76 3 1 -63z"/>
<path d="M7523 5902 c-1 -63 2 -100 8 -96 5 3 7 22 5 42 -4 27 -3 30 2 12 l8
-25 7 25 c9 35 9 62 -2 56 -4 -3 -6 6 -3 21 3 17 1 24 -6 19 -6 -4 -12 5 -14
21 -2 16 -5 -18 -5 -75z"/>
<path d="M4960 5970 c0 -5 9 -10 21 -10 11 0 17 5 14 10 -3 6 -13 10 -21 10
-8 0 -14 -4 -14 -10z"/>
<path d="M4402 5928 c-1 -27 0 -48 2 -48 2 0 13 -3 23 -6 17 -6 17 -6 1 7 -9
8 -19 32 -21 54 -4 39 -4 39 -5 -7z"/>
<path d="M4981 5845 c-13 -14 -31 -25 -41 -25 -11 0 -20 -10 -24 -26 -4 -15
-6 -27 -4 -28 2 -2 17 -12 35 -24 19 -14 49 -23 77 -24 63 -3 58 -23 -6 -26
-29 -1 -54 -6 -57 -11 -4 -5 -28 -5 -56 0 -27 4 -83 8 -124 8 l-73 1 4 -99 c2
-61 9 -105 17 -114 7 -9 10 -21 6 -27 -3 -5 -1 -10 4 -10 6 0 11 7 11 15 0 10
7 15 18 13 14 -3 17 4 15 40 -1 23 2 42 8 42 5 0 9 -13 9 -29 0 -16 3 -37 6
-46 5 -11 0 -18 -15 -22 -12 -3 -21 -13 -21 -24 0 -10 -4 -21 -10 -24 -5 -3
-10 -26 -10 -51 0 -36 3 -44 16 -42 26 5 29 -23 4 -29 -20 -5 -22 -10 -15 -52
3 -25 12 -110 18 -188 15 -179 17 -181 116 -165 38 7 91 12 118 13 26 1 59 4
72 8 27 7 41 31 18 31 -14 0 -47 40 -47 58 0 15 -74 134 -85 139 -6 2 -9 17
-7 33 3 22 9 29 26 29 11 0 41 4 65 11 24 6 46 8 49 5 3 -3 0 -5 -7 -5 -17 0
-6 -48 16 -72 20 -23 32 -22 62 3 21 17 23 22 11 43 -7 13 -9 29 -6 35 13 20
36 11 42 -16 10 -43 20 -49 74 -48 42 1 50 -2 50 -17 0 -10 5 -18 10 -18 6 0
10 -6 10 -14 0 -14 -43 -31 -71 -27 -8 1 -29 -5 -45 -14 -16 -8 -36 -15 -44
-15 -9 0 -26 -7 -39 -17 -23 -15 -23 -17 -6 -29 17 -13 17 -15 -8 -38 -34 -31
-34 -34 3 -28 17 2 30 8 30 12 0 4 15 14 33 21 17 7 35 14 40 17 4 2 7 -5 7
-16 0 -12 -9 -23 -22 -27 -21 -6 -21 -8 -4 -12 10 -3 23 0 29 6 6 6 23 11 37
11 14 0 30 4 36 9 5 5 27 11 49 13 35 3 40 6 43 31 4 29 19 36 28 12 8 -20 15
-19 46 10 31 28 48 32 48 10 0 -19 26 -20 33 -1 3 7 23 16 44 18 31 4 42 0 60
-19 22 -23 43 -30 43 -15 0 20 -32 72 -41 67 -5 -4 -9 -1 -9 5 0 6 -13 25 -30
42 -16 16 -30 34 -30 39 0 12 27 12 35 -1 3 -5 22 -10 40 -10 38 0 61 28 56
67 -1 11 3 24 9 28 8 5 8 11 -1 21 -16 19 17 31 43 15 50 -31 158 -20 144 15
-3 8 -2 14 2 14 28 2 162 15 192 19 2 1 -1 6 -6 11 -7 7 -63 11 -137 11 -70 0
-127 2 -127 5 0 2 12 9 26 14 14 6 22 14 19 20 -3 5 7 12 22 15 95 19 136 31
204 60 65 27 160 83 179 104 13 16 89 70 120 87 29 15 55 19 143 18 59 0 107
2 107 5 -1 35 -100 66 -187 58 -34 -4 -78 -13 -99 -22 -41 -17 -157 -93 -162
-107 -2 -4 -10 -8 -18 -8 -8 0 -22 -4 -32 -10 -37 -21 -124 -50 -152 -50 -16
0 -32 -5 -35 -10 -5 -8 -11 -7 -21 1 -11 9 -18 9 -29 -1 -19 -16 -34 -5 -17
12 20 20 14 26 -28 25 -43 -2 -48 -8 -25 -27 22 -18 18 -44 -11 -74 -32 -32
-41 -32 -71 -5 -16 16 -26 19 -35 12 -7 -6 -38 -13 -69 -17 -48 -5 -59 -3 -74
14 -9 10 -30 21 -46 24 -16 3 -42 9 -59 12 -37 7 -38 -5 -8 -64 19 -35 27 -42
46 -37 28 7 29 -6 1 -24 -17 -10 -23 -10 -29 -1 -5 7 -19 11 -34 8 -28 -6 -32
2 -16 33 6 11 7 19 1 19 -19 0 -101 88 -101 108 0 25 4 26 31 12 34 -19 41 0
13 33 -20 23 -35 32 -58 32 -24 0 -34 6 -44 28 -10 21 -18 26 -32 22 -26 -8
-60 12 -60 35 0 11 -6 20 -12 20 -7 0 -26 16 -41 36 -27 33 -28 37 -13 53 22
24 21 46 -1 35 -24 -11 -124 -7 -137 6 -14 14 -18 13 -45 -15z m-75 -240 c-3
-8 -10 -15 -16 -15 -14 0 -12 37 3 43 15 5 21 -8 13 -28z m144 -54 c0 -12 -30
-22 -43 -14 -7 4 -3 9 9 14 26 10 34 10 34 0z m-137 -31 c-4 -16 -8 -18 -19
-9 -16 13 -10 29 11 29 8 0 11 -7 8 -20z m37 -50 c0 -5 -8 -10 -17 -10 -15 0
-16 2 -3 10 19 12 20 12 20 0z m-95 -15 c13 -11 19 -28 20 -55 0 -25 5 -40 13
-40 6 0 12 -4 12 -10 0 -5 14 -10 30 -10 30 0 36 11 31 63 -2 12 5 17 21 17
13 0 29 5 36 12 9 9 15 9 24 0 9 -9 9 -15 0 -24 -8 -8 -8 -19 3 -45 8 -18 13
-33 12 -34 -1 0 -27 -2 -57 -3 -31 -1 -61 -5 -67 -9 -6 -4 -14 -3 -18 3 -10
16 -33 12 -38 -7 -3 -13 -5 -12 -6 5 0 12 -8 34 -17 47 -9 14 -14 31 -11 39 3
8 -3 22 -13 31 -32 29 -11 46 25 20z m585 -15 c0 -5 -4 -10 -9 -10 -6 0 -13 5
-16 10 -3 6 1 10 9 10 9 0 16 -4 16 -10z m-663 -102 c-3 -8 -6 -5 -6 6 -1 11
2 17 5 13 3 -3 4 -12 1 -19z m1023 3 c0 -5 3 -16 6 -25 4 -11 1 -16 -11 -16
-11 0 -15 5 -11 15 3 8 1 15 -4 15 -6 0 -10 5 -10 10 0 6 7 10 15 10 8 0 15
-4 15 -9z m-50 -41 c0 -5 -4 -10 -9 -10 -6 0 -13 5 -16 10 -3 6 1 10 9 10 9 0
16 -4 16 -10z m-550 -55 c0 -10 -10 -15 -32 -15 -30 0 -31 1 -12 15 25 19 44
19 44 0z m430 -159 c0 -11 -19 -15 -25 -6 -3 5 1 10 9 10 9 0 16 -2 16 -4z
m-52 -18 c-6 -18 -28 -21 -28 -4 0 9 7 16 16 16 9 0 14 -5 12 -12z m-328 -53
c0 -8 -6 -15 -14 -15 -17 0 -28 14 -19 24 12 12 33 6 33 -9z"/>
<path d="M7556 5844 c-3 -9 -6 -28 -6 -42 0 -15 -3 -38 -7 -52 l-7 -25 -8 30
c-5 21 -6 15 -2 -17 3 -26 1 -49 -5 -52 -11 -7 -10 -66 0 -66 6 0 25 91 44
203 6 38 2 49 -9 21z"/>
<path d="M4787 5830 c-5 -21 16 -45 33 -35 16 10 12 42 -6 49 -21 8 -21 8 -27
-14z"/>
<path d="M4722 5828 c7 -19 38 -22 38 -4 0 10 -9 16 -21 16 -12 0 -19 -5 -17
-12z"/>
<path d="M5940 5831 c0 -14 60 -41 92 -41 32 0 56 16 42 30 -16 16 -134 26
-134 11z"/>
<path d="M6621 5811 c-17 -17 -19 -26 -12 -40 13 -24 46 -32 67 -17 21 16 15
45 -13 63 -19 13 -24 12 -42 -6z"/>
<path d="M5670 5776 c0 -9 7 -16 16 -16 9 0 14 5 12 12 -6 18 -28 21 -28 4z"/>
<path d="M5536 5742 c-3 -6 -1 -14 5 -17 15 -10 25 3 12 16 -7 7 -13 7 -17 1z"/>
<path d="M5756 5676 c8 -22 36 -30 32 -9 -2 10 -11 19 -21 21 -12 2 -15 -1
-11 -12z"/>
<path d="M4479 5660 c24 -21 66 -27 76 -11 8 14 -6 20 -56 26 l-44 5 24 -20z"/>
<path d="M6717 5649 c7 -7 15 -10 18 -7 3 3 -2 9 -12 12 -14 6 -15 5 -6 -5z"/>
<path d="M7492 5581 c-1 -35 -9 -65 -22 -85 -21 -33 -28 -20 -9 17 10 21 10
21 -5 3 -19 -23 -21 -53 -5 -58 9 -3 9 -9 0 -25 -6 -12 -11 -28 -11 -35 1 -23
16 12 45 99 21 64 25 88 18 110 -9 25 -10 22 -11 -26z"/>
<path d="M4579 5604 c-10 -12 -32 -15 -111 -13 -94 3 -136 -6 -90 -18 12 -3
22 -13 22 -23 0 -14 9 -17 61 -16 l62 1 2 -35 c1 -19 -5 -43 -13 -52 -14 -16
-11 -17 42 -13 l56 5 0 -30 c0 -17 4 -30 10 -30 5 0 8 21 6 48 -2 26 -4 55 -5
64 -1 9 -10 20 -21 23 -11 3 -20 11 -20 17 0 5 7 8 15 4 12 -4 15 3 15 34 0
44 -12 57 -31 34z m31 -123 c0 -4 -11 -6 -25 -3 -14 2 -25 6 -25 8 0 2 11 4
25 4 14 0 25 -4 25 -9z"/>
<path d="M7460 5585 c0 -8 5 -15 10 -15 6 0 10 7 10 15 0 8 -4 15 -10 15 -5 0
-10 -7 -10 -15z"/>
<path d="M4400 5499 c0 -11 5 -17 10 -14 6 3 10 13 10 21 0 8 -4 14 -10 14 -5
0 -10 -9 -10 -21z"/>
<path d="M4412 5453 c-9 -3 -4 -10 14 -19 31 -17 43 -11 24 11 -13 16 -17 17
-38 8z"/>
<path d="M4174 5408 c-3 -4 11 -8 30 -8 20 0 36 2 36 4 0 8 -61 12 -66 4z"/>
<path d="M4548 5403 c-36 -6 -50 -25 -46 -65 3 -33 4 -33 53 -33 46 0 50 2 54
25 1 14 8 29 15 33 7 6 5 7 -6 4 -11 -4 -18 2 -22 19 -4 13 -10 23 -14 23 -4
-1 -19 -4 -34 -6z"/>
<path d="M4422 5308 c0 -32 5 -58 9 -58 11 0 10 69 -1 95 -6 14 -8 3 -8 -37z"/>
<path d="M7397 5340 c8 -29 25 -37 21 -9 -1 12 -8 24 -15 26 -7 3 -9 -3 -6
-17z"/>
<path d="M7364 5327 c-8 -21 2 -35 16 -21 5 5 6 15 0 24 -8 12 -10 12 -16 -3z"/>
<path d="M7391 5284 c0 -11 3 -14 6 -6 3 7 2 16 -1 19 -3 4 -6 -2 -5 -13z"/>
<path d="M4590 5269 c0 -5 5 -7 10 -4 6 3 10 8 10 11 0 2 -4 4 -10 4 -5 0 -10
-5 -10 -11z"/>
<path d="M6005 5250 c-3 -5 -4 -14 0 -19 3 -5 1 -12 -5 -16 -5 -3 -10 -25 -10
-48 l0 -42 48 3 c26 2 50 7 55 11 12 12 16 95 5 109 -12 14 -84 16 -93 2z"/>
<path d="M7366 5234 c-10 -37 -2 -39 11 -4 6 17 8 30 3 30 -4 0 -11 -12 -14
-26z"/>
<path d="M4538 5213 c-6 -7 -22 -13 -37 -12 -14 0 -44 -4 -66 -10 -36 -9 -43
-14 -48 -38 -2 -9 86 -11 93 -2 9 11 50 21 50 12 0 -16 -15 -31 -35 -36 -18
-4 -18 -5 3 -6 12 0 22 -5 22 -11 0 -6 23 -7 60 -3 l60 6 0 -47 c0 -37 -3 -46
-18 -46 -11 0 -18 8 -19 21 -3 31 -16 41 -47 33 -24 -6 -35 -31 -20 -47 3 -3
7 -26 9 -51 3 -47 24 -106 38 -106 5 0 6 4 3 9 -11 17 22 33 54 26 l30 -7 -1
49 c0 26 -7 86 -15 133 -8 47 -15 94 -17 105 -1 11 -6 26 -10 33 -11 16 -74
12 -89 -5z"/>
<path d="M7286 5169 c-10 -50 -6 -57 9 -20 17 38 19 51 6 51 -5 0 -11 -14 -15
-31z"/>
<path d="M7332 5183 c-7 -12 -12 -30 -12 -40 0 -13 5 -9 15 11 9 16 14 34 12
40 -2 6 -9 1 -15 -11z"/>
<path d="M5842 5169 c2 -6 8 -10 13 -10 5 0 11 4 13 10 2 6 -4 11 -13 11 -9 0
-15 -5 -13 -11z"/>
<path d="M7296 5104 c-10 -25 1 -29 14 -5 6 12 7 21 1 21 -5 0 -12 -7 -15 -16z"/>
<path d="M4488 5103 c7 -3 16 -2 19 1 4 3 -2 6 -13 5 -11 0 -14 -3 -6 -6z"/>
<path d="M7207 5026 c-4 -10 -1 -13 9 -9 15 6 19 23 5 23 -5 0 -11 -7 -14 -14z"/>
<path d="M7240 5015 c-7 -14 -11 -28 -7 -31 3 -3 13 8 22 25 8 17 12 31 7 31
-5 0 -15 -11 -22 -25z"/>
<path d="M4481 5004 c0 -11 3 -14 6 -6 3 7 2 16 -1 19 -3 4 -6 -2 -5 -13z"/>
<path d="M7196 4962 c-2 -4 4 -9 15 -9 11 -1 17 2 14 8 -7 11 -22 12 -29 1z"/>
<path d="M4492 4948 c-15 -15 -16 -38 -2 -38 12 0 23 25 18 40 -2 7 -7 7 -16
-2z"/>
<path d="M5593 4943 c9 -2 25 -2 35 0 9 3 1 5 -18 5 -19 0 -27 -2 -17 -5z"/>
<path d="M7136 4923 c-16 -59 -17 -68 -7 -53 5 8 13 11 17 7 4 -4 -1 -16 -11
-27 -10 -11 -14 -20 -9 -20 5 0 17 11 26 24 15 21 16 25 2 30 -11 4 -12 10 -4
25 12 24 13 31 1 31 -5 0 -12 -8 -15 -17z"/>
<path d="M5480 4920 c0 -12 17 -12 45 0 17 7 15 9 -12 9 -18 1 -33 -3 -33 -9z"/>
<path d="M5283 4902 c-46 -9 -83 -20 -83 -24 0 -13 90 -9 158 7 35 8 67 13 72
10 4 -3 13 2 20 10 11 13 6 15 -36 14 -27 -1 -86 -9 -131 -17z"/>
<path d="M7170 4903 c0 -10 4 -14 8 -8 4 6 11 13 16 18 5 4 2 7 -7 7 -10 0
-17 -8 -17 -17z"/>
<path d="M5138 4886 c-23 -17 -23 -26 1 -26 32 0 50 11 44 26 -6 17 -23 17
-45 0z"/>
<path d="M6095 4863 c-11 -2 -65 -13 -120 -25 -161 -33 -179 -38 -167 -50 9
-9 48 -1 272 54 68 17 81 35 15 21z"/>
<path d="M7086 4783 c-6 -14 -5 -15 5 -6 7 7 10 15 7 18 -3 3 -9 -2 -12 -12z"/>
<path d="M7040 4766 c0 -8 5 -18 10 -21 6 -3 10 1 10 9 0 8 -4 18 -10 21 -5 3
-10 -1 -10 -9z"/>
<path d="M6967 4703 c7 -17 21 -16 38 1 11 11 9 13 -14 12 -18 -1 -27 -5 -24
-13z"/>
<path d="M6961 4663 c-1 -22 -9 -27 -41 -24 -12 1 -12 -1 2 -9 21 -13 40 -6
56 21 8 12 9 18 4 15 -6 -3 -13 0 -15 6 -3 7 -6 3 -6 -9z"/>
<path d="M6900 4594 c0 -14 3 -14 15 -4 8 7 15 14 15 16 0 2 -7 4 -15 4 -8 0
-15 -7 -15 -16z"/>
<path d="M4190 3270 c-99 -16 -160 -60 -181 -129 -31 -105 31 -180 179 -215
80 -18 104 -32 100 -59 -3 -19 -9 -22 -53 -22 -45 1 -88 16 -197 73 -7 3 -68
-110 -68 -127 0 -19 128 -71 204 -83 175 -27 306 46 306 172 0 86 -49 134
-175 171 -101 29 -115 36 -115 59 0 17 7 20 40 20 22 0 66 -9 98 -21 87 -32
92 -31 123 31 16 30 28 60 29 66 0 14 -141 61 -200 67 -25 2 -65 1 -90 -3z"/>
<path d="M5680 3273 c-177 -23 -282 -128 -282 -283 0 -120 61 -213 171 -263
66 -30 193 -29 281 2 36 12 71 27 78 33 8 7 12 45 12 124 l0 114 -75 0 -75 0
0 -59 c0 -70 -11 -83 -75 -83 -61 -1 -91 16 -116 69 -28 58 -19 115 26 160 28
28 40 33 83 33 33 0 64 -8 97 -26 l49 -25 19 23 c10 13 32 41 48 63 l30 39
-38 23 c-60 37 -173 64 -233 56z"/>
<path d="M2805 2990 l0 -280 240 2 240 3 0 65 0 65 -145 2 -145 1 -3 36 -3 36
130 0 131 0 0 70 0 70 -130 0 -130 0 0 35 0 35 145 0 145 0 0 70 0 70 -237 0
-238 0 0 -280z"/>
<path d="M3537 3238 c-8 -18 -60 -141 -116 -274 -55 -132 -101 -244 -101 -248
0 -4 41 -5 92 -4 l91 3 12 35 12 35 108 0 108 0 12 -35 12 -35 96 -3 c54 -1
97 0 97 2 0 3 -36 94 -81 203 -44 109 -94 233 -111 276 l-30 77 -94 0 -94 0
-13 -32z m131 -232 c12 -36 22 -70 22 -75 0 -7 -23 -11 -56 -11 -53 0 -55 1
-48 23 18 58 46 127 52 127 4 0 17 -29 30 -64z"/>
<path d="M4530 2990 l0 -280 93 0 92 0 0 280 0 280 -92 0 -93 0 0 -280z"/>
<path d="M4800 2990 l0 -280 80 0 79 0 3 143 3 142 110 -142 110 -143 78 0 77
0 0 280 0 280 -80 0 -80 0 0 -141 c0 -156 -3 -161 -55 -91 -16 22 -61 84 -100
136 l-70 95 -77 0 -78 1 0 -280z"/>
<path d="M6180 2990 l0 -280 210 0 210 0 0 75 0 75 -115 0 -115 0 -1 180 c-1
99 -2 190 -3 203 -1 21 -6 22 -93 25 l-93 3 0 -281z"/>
<path d="M6650 2990 l0 -280 90 0 90 0 0 280 0 280 -90 0 -90 0 0 -280z"/>
<path d="M6920 2990 l0 -280 90 0 90 0 0 90 0 90 125 0 125 0 0 70 0 70 -125
0 -125 0 0 50 0 49 133 3 132 3 0 65 0 65 -222 3 -223 2 0 -280z"/>
<path d="M7426 3262 c-3 -5 -4 -130 -3 -278 l2 -269 240 0 240 0 0 65 0 65
-145 2 -145 1 -3 36 -3 36 130 0 131 0 0 70 0 70 -130 0 -130 0 0 35 0 35 145
0 145 0 0 70 0 70 -234 0 c-129 0 -237 -4 -240 -8z"/>
<path d="M2950 2549 c-85 -16 -130 -57 -138 -125 -7 -64 5 -110 38 -141 37
-35 91 -44 183 -30 l67 9 0 58 c0 49 3 58 23 68 18 9 8 11 -53 11 -61 0 -71
-2 -52 -11 19 -9 22 -19 22 -65 l0 -53 -46 0 c-25 0 -54 5 -65 10 -72 39 -62
226 14 245 13 4 41 5 63 3 33 -3 42 -9 60 -41 11 -20 24 -34 27 -30 12 11 8
70 -5 80 -17 14 -95 21 -138 12z"/>
<path d="M3585 2550 c-41 -9 -65 -23 -95 -54 -34 -37 -40 -136 -11 -183 30
-48 64 -66 126 -66 100 0 160 61 159 163 0 62 -21 103 -63 124 -36 18 -81 24
-116 16z m80 -40 c41 -46 38 -207 -5 -230 -48 -26 -101 -5 -121 47 -23 61 -3
182 33 196 30 12 76 6 93 -13z"/>
<path d="M4641 2550 c-98 -23 -150 -137 -103 -229 26 -52 60 -72 123 -74 67
-1 114 23 143 73 27 45 28 135 3 173 -30 46 -102 71 -166 57z m89 -46 c21 -22
24 -35 25 -102 0 -100 -18 -132 -73 -132 -20 0 -42 4 -48 8 -37 24 -57 136
-35 195 24 62 89 77 131 31z"/>
<path d="M5374 2550 c-82 -19 -128 -77 -127 -161 1 -87 56 -141 143 -142 49
-1 130 28 130 46 0 5 -8 6 -17 2 -42 -17 -113 -18 -139 0 -60 39 -70 152 -17
207 37 39 102 40 132 2 12 -15 21 -33 21 -40 0 -8 5 -14 10 -14 6 0 10 20 10
45 0 48 9 43 -95 59 -11 2 -34 0 -51 -4z"/>
<path d="M5688 2550 c-80 -24 -118 -74 -118 -154 0 -95 50 -147 143 -148 103
-1 160 58 159 163 -1 63 -17 96 -62 122 -33 19 -89 27 -122 17z m95 -52 c36
-48 25 -192 -17 -220 -6 -4 -28 -8 -49 -8 -54 0 -77 40 -77 136 0 94 22 127
83 122 30 -2 45 -10 60 -30z"/>
<path d="M7753 2549 c-62 -18 -85 -95 -40 -137 13 -12 27 -22 32 -22 4 0 23
-11 42 -26 53 -40 42 -98 -18 -92 -27 2 -37 9 -48 36 -20 44 -31 40 -31 -12 0
-43 0 -43 40 -49 54 -7 111 8 133 34 9 12 17 38 17 60 0 44 -20 67 -81 94 -66
30 -68 95 -3 95 31 0 37 -4 47 -30 6 -16 15 -30 19 -30 13 0 9 70 -4 74 -35
11 -76 13 -105 5z"/>
<path d="M3160 2539 c0 -5 9 -9 20 -9 19 0 20 -7 20 -130 0 -123 -1 -130 -20
-130 -11 0 -20 -4 -20 -10 0 -6 30 -10 70 -10 40 0 70 4 70 10 0 6 -9 10 -20
10 -18 0 -20 7 -20 60 0 83 21 80 63 -7 l32 -68 53 -3 c31 -2 52 1 52 7 0 6
-9 11 -19 11 -20 0 -45 30 -75 88 -17 32 -16 34 9 63 30 36 32 68 6 100 -18
22 -27 24 -120 25 -56 1 -101 -2 -101 -7z m168 -63 c4 -44 -11 -66 -44 -66
-22 0 -24 4 -24 54 0 57 9 69 45 56 14 -5 21 -18 23 -44z"/>
<path d="M3790 2538 c0 -4 9 -8 19 -8 27 0 31 -18 31 -131 0 -93 2 -102 25
-124 44 -45 168 -33 198 19 7 11 14 68 17 126 l5 105 45 0 45 0 3 -123 3 -122
-26 -10 c-14 -5 -25 -12 -25 -15 0 -3 36 -5 81 -5 51 0 78 4 74 10 -3 6 -15
10 -26 10 -16 0 -19 7 -19 55 l0 55 39 0 c91 0 139 129 59 159 -31 11 -328 11
-328 0 0 -5 9 -9 20 -9 19 0 20 -7 20 -105 0 -95 -2 -106 -22 -125 -18 -17
-31 -21 -63 -17 -57 8 -65 25 -65 144 0 96 1 103 20 103 11 0 20 4 20 9 0 5
-34 8 -75 8 -41 0 -75 -4 -75 -9z m518 -69 c4 -46 -13 -69 -50 -69 -15 0 -18
9 -18 59 0 62 9 74 45 61 15 -5 21 -18 23 -51z"/>
<path d="M4860 2538 c0 -5 9 -8 20 -8 19 0 20 -7 20 -130 0 -123 -1 -130 -20
-130 -11 0 -20 -4 -20 -10 0 -6 32 -10 75 -10 41 0 75 4 75 9 0 5 -10 11 -22
13 -20 3 -23 10 -26 60 -3 49 0 57 18 63 29 9 57 -2 65 -28 7 -21 8 -21 12 5
2 15 2 42 0 60 -4 30 -5 31 -12 11 -6 -19 -15 -23 -46 -23 l-39 0 0 50 c0 28
5 50 10 51 6 0 24 1 40 1 65 0 70 -2 76 -27 7 -29 24 -34 24 -7 -1 56 -2 57
-131 57 -65 0 -119 -3 -119 -7z"/>
<path d="M5905 2540 c3 -5 15 -10 26 -10 18 0 19 -8 19 -125 l0 -125 -27 -12
-28 -12 33 -4 c17 -2 47 -2 65 0 28 4 29 5 12 13 -11 5 -23 13 -27 19 -11 16
-10 202 1 191 5 -6 30 -58 56 -117 27 -60 51 -108 55 -108 4 0 14 17 23 38 8
20 31 73 51 117 l36 80 0 -107 c0 -101 -1 -108 -20 -108 -11 0 -20 -4 -20 -10
0 -6 60 -10 160 -10 100 0 160 4 160 10 0 6 -11 10 -25 10 -24 0 -25 3 -25 55
l0 55 33 0 c17 0 46 9 64 20 55 33 55 119 0 139 -12 4 -91 8 -175 9 l-153 2
-10 -28 c-29 -80 -74 -172 -82 -169 -6 2 -28 47 -51 100 l-41 97 -58 0 c-36 0
-56 -4 -52 -10z m457 -24 c4 -6 8 -58 8 -116 0 -58 -4 -110 -8 -116 -11 -17
-51 -24 -78 -14 -23 9 -24 12 -24 122 0 62 4 118 8 124 15 23 79 23 94 0z
m126 -9 c21 -16 15 -74 -10 -91 -40 -28 -48 -21 -48 42 0 32 3 61 6 65 7 6 33
-1 52 -16z"/>
<path d="M6678 2503 c-61 -141 -108 -233 -117 -233 -6 0 -11 -4 -11 -10 0 -5
20 -10 45 -10 25 0 45 5 45 10 0 6 -7 10 -15 10 -18 0 -18 -1 -4 39 11 31 12
32 67 29 51 -3 56 -5 65 -31 7 -23 6 -31 -9 -42 -17 -13 -2 -14 116 -14 126 0
133 1 113 16 -21 14 -23 23 -23 117 l1 101 32 -36 c38 -41 59 -68 107 -129 48
-62 60 -73 68 -66 3 4 6 58 5 119 -3 131 2 157 28 157 11 0 19 5 19 10 0 6
-27 10 -61 10 -37 0 -58 -4 -54 -10 3 -5 15 -10 26 -10 17 0 19 -7 19 -80 0
-44 -3 -80 -7 -80 -5 1 -39 41 -78 90 l-70 89 -52 0 c-29 1 -53 -3 -53 -9 0
-5 9 -10 20 -10 19 0 20 -7 20 -129 0 -115 -2 -130 -17 -133 -46 -10 -65 4
-93 66 -14 34 -42 96 -61 138 -19 43 -38 78 -42 78 -4 0 -17 -21 -29 -47z m28
-78 c22 -54 19 -65 -21 -65 -24 0 -35 5 -35 15 0 15 31 85 37 85 2 0 11 -16
19 -35z"/>
<path d="M7226 2539 c3 -5 14 -9 25 -9 18 0 19 -8 19 -130 0 -123 -1 -130 -20
-130 -11 0 -20 -4 -20 -10 0 -6 32 -10 75 -10 41 0 75 4 75 9 0 5 -10 11 -22
13 -22 3 -23 6 -23 127 l0 125 25 6 c14 4 36 3 48 -1 21 -8 22 -13 22 -134 0
-118 -1 -125 -20 -125 -11 0 -20 -4 -20 -10 0 -6 46 -10 119 -10 l119 0 11 31
c17 50 13 56 -16 20 -26 -30 -32 -32 -78 -29 l-50 3 0 60 c0 53 2 60 20 61 33
2 65 -14 65 -32 0 -10 3 -14 7 -11 9 9 10 107 1 107 -4 0 -10 -9 -13 -20 -5
-16 -15 -20 -46 -20 l-39 0 0 49 c0 57 9 63 75 54 31 -4 46 -11 50 -24 4 -11
11 -19 17 -19 5 0 7 7 4 16 -3 9 -6 23 -6 33 0 15 -18 17 -205 17 -112 1 -202
-3 -199 -7z"/>
</g>
</svg>
